<svg width="123" height="37" viewBox="0 0 123 37" fill="none" xmlns="http://www.w3.org/2000/svg">
<g clip-path="url(#clip0_1272_56837)">
<path d="M36.1475 20.7737C39.3482 13.1083 35.6788 4.3203 27.9518 1.14519C20.2248 -2.02993 11.3662 1.61017 8.16561 9.27558C4.96498 16.941 8.63433 25.729 16.3613 28.9041C24.0883 32.0792 32.9469 28.4391 36.1475 20.7737Z" fill="#023E8A"/>
<path d="M7.64866 21.0122C7.42341 20.4786 7.05642 20.0155 6.5868 19.6725C6.11718 19.3295 5.56252 19.1193 4.98197 19.0644C4.40141 19.0094 3.81672 19.1118 3.2902 19.3606C2.76367 19.6093 2.31505 19.9952 1.99216 20.4769C1.66927 20.9587 1.48422 21.5184 1.45671 22.0963C1.42921 22.6742 1.56028 23.2486 1.83597 23.7584C2.11166 24.2683 2.52162 24.6943 3.02218 24.9912C3.52273 25.288 4.09512 25.4446 4.67831 25.4442C5.10304 25.4435 5.52333 25.3583 5.9143 25.1937C6.30497 25.0322 6.65973 24.7958 6.95831 24.4982C7.2569 24.2006 7.49348 23.8476 7.65453 23.4593C7.81558 23.071 7.89796 22.6551 7.89695 22.2352C7.89594 21.8153 7.81157 21.3997 7.64866 21.0122Z" fill="#023E8A"/>
<path d="M3.2294 18.2615C3.86744 18.2607 4.49088 18.0721 5.02084 17.7196C5.5508 17.3672 5.96346 16.8667 6.20662 16.2815C6.44978 15.6963 6.51251 15.0527 6.38687 14.4322C6.26122 13.8116 5.95284 13.242 5.50076 12.7954C5.04868 12.3487 4.47322 12.0451 3.84718 11.923C3.22113 11.8009 2.57261 11.8658 1.98373 12.1094C1.39485 12.353 0.892058 12.7644 0.538941 13.2916C0.185824 13.8188 -0.00172478 14.438 1.19534e-05 15.0709C0.000299059 15.491 0.0840875 15.907 0.246617 16.2949C0.409146 16.6829 0.647206 17.0352 0.947171 17.3318C1.24713 17.6283 1.60313 17.8633 1.99475 18.0232C2.38636 18.1831 2.80591 18.2649 3.2294 18.2637V18.2615Z" fill="#023E8A"/>
<path d="M11.0669 26.0605C10.616 25.614 10.0417 25.3101 9.41674 25.1872C8.79174 25.0643 8.14404 25.128 7.5555 25.3701C6.96695 25.6123 6.46398 26.0221 6.11012 26.5477C5.75626 27.0733 5.56738 27.6912 5.56738 28.3233C5.56738 28.9554 5.75626 29.5733 6.11012 30.0989C6.46398 30.6246 6.96695 31.0343 7.5555 31.2765C8.14404 31.5187 8.79174 31.5823 9.41674 31.4594C10.0417 31.3366 10.616 31.0327 11.0669 30.5861C11.3669 30.2892 11.6048 29.9365 11.7671 29.5482C11.9295 29.1599 12.013 28.7437 12.013 28.3233C12.013 27.903 11.9295 27.4867 11.7671 27.0985C11.6048 26.7102 11.3669 26.3575 11.0669 26.0605Z" fill="#023E8A"/>
<path d="M16.1624 29.4449C15.7704 29.2796 15.3493 29.193 14.9234 29.1901C14.4975 29.1872 14.0753 29.2681 13.6811 29.4281C13.2869 29.588 12.9285 29.8239 12.6268 30.1221C12.3251 30.4203 12.0859 30.7749 11.9231 31.1653C11.7604 31.5557 11.6772 31.9743 11.6785 32.3968C11.6798 32.8193 11.7655 33.2374 11.9306 33.6269C12.0958 34.0163 12.3371 34.3694 12.6406 34.6658C12.9442 34.9622 13.304 35.1959 13.6991 35.3535C14.0889 35.5164 14.5078 35.5993 14.9307 35.5975C15.6769 35.598 16.4002 35.3416 16.9771 34.8721C17.554 34.4026 17.9487 33.7491 18.0941 33.0231C18.2394 32.297 18.1263 31.5434 17.774 30.8909C17.4217 30.2384 16.8521 29.7273 16.1624 29.4449Z" fill="#023E8A"/>
<path d="M22.1711 30.6036C21.5333 30.6044 20.9101 30.7928 20.3803 31.145C19.8505 31.4972 19.4378 31.9973 19.1945 32.5821C18.9511 33.1669 18.888 33.8101 19.0131 34.4305C19.1382 35.0509 19.4459 35.6205 19.8974 36.0674C20.3488 36.5143 20.9236 36.8184 21.5493 36.9413C22.1749 37.0641 22.8231 37.0002 23.4121 36.7576C24.0011 36.515 24.5044 36.1046 24.8583 35.5783C25.2122 35.052 25.4009 34.4334 25.4005 33.8007C25.4008 33.3802 25.3174 32.9638 25.1551 32.5754C24.9928 32.1869 24.7549 31.834 24.4548 31.537C24.1548 31.24 23.7986 31.0046 23.4067 30.8445C23.0148 30.6843 22.5949 30.6024 22.1711 30.6036Z" fill="#023E8A"/>
<path d="M78.9444 20.7734C82.1451 13.108 78.4757 4.32003 70.7487 1.14491C63.0217 -2.0302 54.1631 1.6099 50.9625 9.27531C47.7619 16.9407 51.4312 25.7287 59.1582 28.9038C66.8852 32.079 75.7438 28.4388 78.9444 20.7734Z" fill="#023E8A"/>
<path d="M50.4453 21.0122C50.2201 20.4786 49.8531 20.0157 49.3836 19.6727C48.9141 19.3297 48.3596 19.1195 47.7791 19.0644C47.1987 19.0094 46.6141 19.1116 46.0876 19.3602C45.5611 19.6088 45.1124 19.9944 44.7894 20.476C44.4664 20.9576 44.2812 21.5171 44.2534 22.0949C44.2257 22.6727 44.3564 23.2471 44.6318 23.757C44.9072 24.2669 45.3169 24.6931 45.8172 24.9902C46.3175 25.2873 46.8897 25.4442 47.4727 25.4442C47.8982 25.4437 48.3192 25.3586 48.7109 25.1937C49.4995 24.867 50.1251 24.243 50.4503 23.459C50.7755 22.6749 50.7737 21.7949 50.4453 21.0122Z" fill="#023E8A"/>
<path d="M46.026 18.2615C46.6641 18.2607 47.2875 18.0721 47.8175 17.7196C48.3474 17.3672 48.7601 16.8667 49.0032 16.2815C49.2464 15.6963 49.3091 15.0527 49.1835 14.4322C49.0578 13.8116 48.7495 13.242 48.2974 12.7954C47.8453 12.3487 47.2699 12.0451 46.6438 11.923C46.0178 11.8009 45.3693 11.8658 44.7804 12.1094C44.1915 12.353 43.6887 12.7644 43.3356 13.2916C42.9825 13.8188 42.7949 14.438 42.7966 15.0709C42.7969 15.4912 42.8808 15.9073 43.0435 16.2954C43.2061 16.6835 43.4444 17.036 43.7446 17.3326C44.0448 17.6291 44.401 17.8641 44.7929 18.0238C45.1848 18.1836 45.6046 18.2651 46.0282 18.2637L46.026 18.2615Z" fill="#023E8A"/>
<path d="M53.8636 26.0605C53.4126 25.614 52.8383 25.3101 52.2133 25.1872C51.5883 25.0643 50.9407 25.128 50.3521 25.3701C49.7636 25.6123 49.2606 26.0221 48.9067 26.5477C48.5529 27.0733 48.364 27.6912 48.364 28.3233C48.364 28.9554 48.5529 29.5733 48.9067 30.0989C49.2606 30.6246 49.7636 31.0343 50.3521 31.2765C50.9407 31.5187 51.5883 31.5823 52.2133 31.4594C52.8383 31.3366 53.4126 31.0327 53.8636 30.5861C54.1632 30.289 54.4009 29.9363 54.5631 29.548C54.7253 29.1597 54.8087 28.7436 54.8087 28.3233C54.8087 27.903 54.7253 27.4869 54.5631 27.0986C54.4009 26.7104 54.1632 26.3576 53.8636 26.0605Z" fill="#023E8A"/>
<path d="M58.959 29.4449C58.567 29.2796 58.1459 29.193 57.72 29.1901C57.2941 29.1872 56.8719 29.2681 56.4777 29.4281C56.0835 29.588 55.7252 29.8239 55.4234 30.1221C55.1217 30.4203 54.8825 30.7749 54.7197 31.1653C54.557 31.5557 54.4738 31.9743 54.4751 32.3968C54.4764 32.8193 54.5621 33.2374 54.7272 33.6269C54.8924 34.0163 55.1337 34.3694 55.4373 34.6658C55.7408 34.9622 56.1006 35.1959 56.4958 35.3535C56.8855 35.5164 57.3045 35.5993 57.7274 35.5975C58.4735 35.598 59.1968 35.3416 59.7737 34.8721C60.3505 34.4026 60.7454 33.7491 60.8907 33.0231C61.036 32.297 60.9229 31.5434 60.5706 30.8909C60.2183 30.2384 59.6487 29.7273 58.959 29.4449Z" fill="#023E8A"/>
<path d="M64.9701 30.6036C64.3323 30.604 63.7089 30.7921 63.1788 31.144C62.6487 31.4959 62.2357 31.9958 61.992 32.5806C61.7483 33.1653 61.6848 33.8087 61.8097 34.4292C61.9346 35.0497 62.2421 35.6195 62.6934 36.0667C63.1448 36.5138 63.7196 36.8181 64.3453 36.9411C64.971 37.0642 65.6194 37.0004 66.2085 36.7578C66.7976 36.5153 67.301 36.1049 67.655 35.5785C68.0091 35.0521 68.1978 34.4335 68.1973 33.8007C68.1976 33.3804 68.1143 32.9642 67.9522 32.5759C67.7901 32.1876 67.5523 31.8348 67.2525 31.5378C66.9527 31.2408 66.5968 31.0054 66.2051 30.8451C65.8135 30.6848 65.3938 30.6027 64.9701 30.6036Z" fill="#023E8A"/>
<path d="M121.74 20.7752C124.941 13.1098 121.272 4.32183 113.545 1.14671C105.818 -2.02841 96.959 1.61169 93.7584 9.2771C90.5578 16.9425 94.2271 25.7305 101.954 28.9056C109.681 32.0807 118.54 28.4406 121.74 20.7752Z" fill="#023E8A"/>
<path d="M93.2422 21.0122C93.017 20.4786 92.65 20.0157 92.1805 19.6727C91.711 19.3297 91.1565 19.1195 90.576 19.0644C89.9956 19.0094 89.4109 19.1116 88.8844 19.3602C88.3579 19.6088 87.9093 19.9944 87.5863 20.476C87.2633 20.9576 87.078 21.5171 87.0503 22.0949C87.0225 22.6727 87.1533 23.2471 87.4287 23.757C87.7041 24.2669 88.1138 24.6931 88.6141 24.9902C89.1144 25.2873 89.6865 25.4442 90.2696 25.4442C90.6951 25.4436 91.1161 25.3584 91.5078 25.1937C92.2964 24.867 92.922 24.243 93.2472 23.459C93.5724 22.6749 93.5706 21.7949 93.2422 21.0122Z" fill="#023E8A"/>
<path d="M88.8227 18.2615C89.4606 18.2602 90.0838 18.0713 90.6135 17.7186C91.1431 17.3658 91.5555 16.8652 91.7983 16.28C92.0411 15.6948 92.1035 15.0513 91.9776 14.4309C91.8517 13.8104 91.5432 13.241 91.091 12.7946C90.6389 12.3482 90.0634 12.0448 89.4374 11.9229C88.8114 11.8009 88.1631 11.8659 87.5743 12.1096C86.9856 12.3533 86.4829 12.7647 86.1298 13.2918C85.7768 13.8189 85.5893 14.4381 85.5911 15.0709C85.5917 15.4911 85.6757 15.9071 85.8385 16.2951C86.0013 16.683 86.2395 17.0354 86.5397 17.3319C86.8398 17.6284 87.1959 17.8634 87.5877 18.0233C87.9794 18.1831 88.3991 18.2648 88.8227 18.2637V18.2615Z" fill="#023E8A"/>
<path d="M96.6605 26.0605C96.2095 25.614 95.6353 25.3101 95.0103 25.1872C94.3853 25.0643 93.7375 25.128 93.149 25.3701C92.5605 25.6123 92.0575 26.0221 91.7036 26.5477C91.3498 27.0733 91.1609 27.6912 91.1609 28.3233C91.1609 28.9554 91.3498 29.5733 91.7036 30.0989C92.0575 30.6246 92.5605 31.0343 93.149 31.2765C93.7375 31.5187 94.3853 31.5823 95.0103 31.4594C95.6353 31.3366 96.2095 31.0327 96.6605 30.5861C96.9601 30.289 97.1978 29.9363 97.36 29.548C97.5221 29.1597 97.6056 28.7436 97.6056 28.3233C97.6056 27.903 97.5221 27.4869 97.36 27.0986C97.1978 26.7104 96.9601 26.3576 96.6605 26.0605Z" fill="#023E8A"/>
<path d="M101.754 29.4449C101.361 29.2752 100.938 29.1849 100.51 29.1793C100.081 29.1736 99.6562 29.2527 99.259 29.4119C98.8619 29.5712 98.5007 29.8074 98.1967 30.1067C97.8926 30.406 97.6517 30.7625 97.4881 31.1552C97.3246 31.5479 97.2415 31.9691 97.2439 32.394C97.2463 32.819 97.3341 33.2391 97.5021 33.63C97.6701 34.0209 97.915 34.3747 98.2224 34.6706C98.5298 34.9665 98.8936 35.1987 99.2925 35.3535C99.6823 35.5163 100.101 35.5993 100.524 35.5974C101.272 35.6 101.997 35.3446 102.575 34.8751C103.153 34.4055 103.549 33.751 103.695 33.0237C103.84 32.2965 103.726 31.5417 103.372 30.8887C103.017 30.2358 102.445 29.7254 101.754 29.4449Z" fill="#023E8A"/>
<path d="M107.764 30.6036C107.127 30.6044 106.503 30.7929 105.974 31.145C105.444 31.4972 105.031 31.9973 104.788 32.5821C104.544 33.1669 104.481 33.8101 104.606 34.4305C104.731 35.0509 105.039 35.6205 105.491 36.0674C105.942 36.5143 106.517 36.8184 107.143 36.9413C107.768 37.0641 108.416 37.0002 109.005 36.7576C109.594 36.515 110.098 36.1046 110.452 35.5783C110.805 35.052 110.994 34.4334 110.994 33.8007C110.993 33.3804 110.91 32.9642 110.747 32.576C110.585 32.1879 110.347 31.8352 110.047 31.5383C109.747 31.2414 109.391 31.006 108.999 30.8457C108.608 30.6853 108.188 30.603 107.764 30.6036Z" fill="#023E8A"/>
<path d="M16.8386 22.1185V8.16922H24.8978C25.5765 8.14995 26.2418 8.3587 26.7859 8.76161C27.0254 8.91113 27.2236 9.11742 27.3627 9.36189C27.5019 9.60635 27.5775 9.88131 27.5828 10.162V13.1522C27.579 13.4353 27.5042 13.713 27.365 13.9601C27.2259 14.2073 27.0268 14.4162 26.7859 14.5678C26.7462 14.5971 26.7044 14.6233 26.6607 14.6462L26.7859 14.7399C27.0255 14.8893 27.2239 15.0955 27.363 15.34C27.5021 15.5845 27.5777 15.8595 27.5828 16.1403V20.1258C27.579 20.4089 27.5042 20.6865 27.365 20.9337C27.2259 21.1809 27.0268 21.3897 26.7859 21.5414C26.2382 21.9357 25.5742 22.1387 24.8978 22.1185H16.8386ZM24.8978 13.0607V11.2487C24.8978 10.9599 24.7822 10.683 24.5763 10.4787C24.3705 10.2745 24.0913 10.1598 23.8002 10.1598H19.5258V14.1453H23.8024C24.0923 14.1448 24.3703 14.0304 24.5756 13.8272C24.7808 13.6239 24.8967 13.3484 24.8978 13.0607ZM24.8978 19.039V17.227C24.8978 16.9382 24.7822 16.6612 24.5763 16.457C24.3705 16.2528 24.0913 16.1381 23.8002 16.1381H19.5258V20.1236H23.8024C24.0923 20.123 24.3703 20.0086 24.5756 19.8054C24.7808 19.6022 24.8967 19.3267 24.8978 19.039Z" fill="white"/>
<path d="M62.3752 22.1185C61.7095 22.1401 61.0561 21.9366 60.5223 21.5414C60.2909 21.3832 60.1016 21.1719 59.9705 20.9254C59.8394 20.6789 59.7703 20.4045 59.7693 20.1258V18.7145L62.3752 18.133V20.1258H67.5892V16.1403H62.3752C61.7095 16.1619 61.0561 15.9583 60.5223 15.5631C60.2909 15.405 60.1016 15.1936 59.9705 14.9471C59.8394 14.7006 59.7703 14.4262 59.7693 14.1475V10.162C59.7719 9.88567 59.8417 9.61406 59.9728 9.37025C60.1039 9.12644 60.2924 8.91765 60.5223 8.76161C61.0524 8.35777 61.7071 8.14846 62.3752 8.16923H67.5892C68.251 8.14977 68.8991 8.35918 69.4224 8.76161C69.6567 8.91462 69.8497 9.12228 69.9844 9.36641C70.1191 9.61054 70.1915 9.8837 70.1951 10.162V11.5733L67.5892 12.1547V10.162H62.3752V14.1475H67.5892C68.251 14.128 68.8991 14.3375 69.4224 14.7399C69.6568 14.8928 69.8499 15.1004 69.9847 15.3445C70.1194 15.5887 70.1917 15.8619 70.1951 16.1403V20.1258C70.1928 20.4064 70.1212 20.6823 69.9864 20.9291C69.8517 21.1759 69.658 21.3861 69.4224 21.5414C68.895 21.9346 68.2486 22.1381 67.5892 22.1185H62.3752Z" fill="white"/>
<path d="M105.308 22.1185C104.642 22.1405 103.989 21.9369 103.455 21.5414C103.224 21.3833 103.034 21.1721 102.902 20.9256C102.771 20.6791 102.701 20.4047 102.7 20.1258V18.7145L105.308 18.133V20.1258H110.52V16.1403H105.308C104.642 16.1622 103.989 15.9587 103.455 15.5631C103.224 15.4051 103.034 15.1938 102.902 14.9473C102.771 14.7008 102.701 14.4264 102.7 14.1475V10.162C102.703 9.88551 102.773 9.61384 102.905 9.37004C103.036 9.12625 103.225 8.91753 103.455 8.7616C103.985 8.3576 104.64 8.14827 105.308 8.16922H110.52C111.182 8.14976 111.83 8.35918 112.353 8.7616C112.587 8.91462 112.78 9.12227 112.915 9.3664C113.05 9.61053 113.122 9.88369 113.126 10.162V11.5732L110.52 12.1547V10.162H105.308V14.1475H110.52C111.182 14.128 111.83 14.3375 112.353 14.7399C112.588 14.8928 112.781 15.1004 112.915 15.3445C113.05 15.5887 113.122 15.8619 113.126 16.1403V20.1258C113.124 20.4064 113.052 20.6823 112.917 20.9291C112.782 21.1759 112.589 21.3861 112.353 21.5414C111.826 21.9346 111.179 22.1381 110.52 22.1185H105.308Z" fill="white"/>
</g>
<defs>
<clipPath id="clip0_1272_56837">
<rect width="122.893" height="37" fill="white"/>
</clipPath>
</defs>
</svg>
