<svg width="112" height="30" viewBox="0 0 112 30" fill="none" xmlns="http://www.w3.org/2000/svg">
<path d="M46.1913 17.0202C45.1276 17.0202 44.1643 16.5897 43.4665 15.8932C43.2564 15.6836 43.0704 15.4498 42.9129 15.1965C42.5459 14.606 42.3339 13.9092 42.3339 13.1629C42.3339 12.4189 42.5445 11.7241 42.9093 11.135C43.0671 10.8802 43.2537 10.6451 43.4646 10.4344C44.1626 9.73685 45.1266 9.30544 46.1913 9.30544C47.2554 9.30544 48.2188 9.73632 48.9167 10.4331C49.1289 10.6449 49.3164 10.8813 49.4748 11.1376C49.817 11.6911 50.023 12.3375 50.0464 13.0302C50.0479 13.0742 50.0486 13.1185 50.0486 13.1629C50.0486 13.2072 50.0479 13.2514 50.0464 13.2954C50.0229 13.9921 49.8146 14.6419 49.469 15.1974C49.3118 15.4502 49.126 15.6835 48.9165 15.8928C48.2186 16.5894 47.2552 17.0202 46.1913 17.0202ZM50.0539 0.000244141V8.28988C50.0515 8.28792 50.049 8.28588 50.0464 8.28392C48.9861 7.44689 47.647 6.94729 46.1913 6.94729C44.4757 6.94729 42.922 7.64126 41.7959 8.76352C41.4558 9.10246 41.1546 9.48052 40.8997 9.8904C40.3427 10.7861 40.0068 11.8335 39.9683 12.9565V13.3803C40.0068 14.5019 40.3419 15.5481 40.8976 16.4431C41.1521 16.8529 41.4528 17.2311 41.7926 17.5702C42.9191 18.6945 44.474 19.3896 46.1913 19.3896C47.647 19.3896 48.9861 18.89 50.0464 18.053C50.049 18.051 50.0515 18.0491 50.0539 18.047C50.2421 17.8981 50.4213 17.7386 50.5909 17.5692C50.9296 17.231 51.2297 16.8538 51.4837 16.4452C52.0654 15.5092 52.4058 14.4075 52.4177 13.2272V11.6862H52.4143V6.93227H52.4112L52.412 6.93147H52.4271V0.000244141H50.0539Z" fill="white"/>
<path d="M84.1255 6.98291H81.7705V19.3925H84.1255V6.98291Z" fill="white"/>
<path d="M111.06 9.88267C110.805 9.46976 110.502 9.08903 110.16 8.74787C109.989 8.57636 109.807 8.41489 109.616 8.26428C108.556 7.42734 107.217 6.92773 105.761 6.92773C104.307 6.92773 102.969 7.42627 101.909 8.26196C101.716 8.41374 101.533 8.57663 101.36 8.74956C101.02 9.08939 100.719 9.46816 100.464 9.87894C99.9105 10.7729 99.5765 11.8173 99.5381 12.9369V13.3804C99.5942 15.0155 100.281 16.4907 101.362 17.5702C101.535 17.7423 101.717 17.9044 101.909 18.0554V13.3574C101.905 13.2902 101.904 13.2225 101.904 13.1545C101.904 13.0865 101.905 13.0188 101.909 12.9516C101.944 12.2843 102.148 11.6619 102.479 11.1267C102.637 10.8718 102.824 10.6368 103.034 10.426C103.732 9.7285 104.696 9.29718 105.761 9.29718C106.825 9.29718 107.789 9.72796 108.486 10.4248C108.699 10.6366 108.886 10.8729 109.045 11.1293C109.387 11.6828 109.593 12.3291 109.616 13.0218C109.618 13.0658 109.618 13.1101 109.618 13.1545C109.618 13.1989 109.618 13.2431 109.616 13.2871V19.3842H111.987V13.0901C111.976 11.9142 111.638 10.8164 111.06 9.88267Z" fill="white"/>
<path d="M56.4631 11.9707C56.6534 11.3857 56.9798 10.8622 57.405 10.4372C58.103 9.73973 59.067 9.30832 60.1317 9.30832C61.845 9.30832 63.2974 10.4253 63.8004 11.9707H56.4631ZM66.2439 11.9707C65.6866 9.10347 63.1619 6.93896 60.1317 6.93896C58.4132 6.93896 56.8573 7.63507 55.7307 8.76079C54.8706 9.62005 54.2607 10.7296 54.0196 11.9707C53.9578 12.2886 53.9201 12.6151 53.9087 12.9482V13.3833C53.9201 13.7158 53.9576 14.0417 54.0192 14.359C54.5758 17.2272 57.1009 19.3925 60.1317 19.3925C61.8494 19.3925 63.4047 18.6969 64.5313 17.5721L62.8569 15.8956C62.159 16.5923 61.1957 17.023 60.1317 17.023C58.4178 17.023 56.965 15.9053 56.4625 14.359H66.2442C66.3153 13.9932 66.3543 13.6158 66.3581 13.2301V13.1014C66.3543 12.715 66.3152 12.3372 66.2439 11.9707Z" fill="white"/>
<path d="M91.829 17.008C90.7653 17.008 89.8021 16.5774 89.1042 15.881C88.8941 15.6714 88.7081 15.4376 88.5506 15.1843C88.2171 14.6477 88.0115 14.0232 87.9769 13.3535C87.9734 13.2864 87.9717 13.2186 87.9717 13.1506C87.9717 13.0826 87.9734 13.0149 87.9769 12.9477C88.0115 12.2805 88.2156 11.6581 88.547 11.1228C88.7048 10.868 88.8914 10.6329 89.1023 10.4221C89.8003 9.72468 90.7643 9.29327 91.829 9.29327C92.8931 9.29327 93.8566 9.72415 94.5544 10.421C94.7666 10.6328 94.9541 10.8691 95.1125 11.1254C95.4547 11.6789 95.6608 12.3253 95.6841 13.018C95.6856 13.062 95.6864 13.1062 95.6864 13.1506C95.6864 13.195 95.6856 13.2392 95.6841 13.2833C95.6606 13.9799 95.4523 14.6298 95.1067 15.1853C94.9495 15.4381 94.7637 15.6713 94.5542 15.8806C93.8563 16.5772 92.8929 17.008 91.829 17.008ZM97.1279 9.87877C96.8725 9.46594 96.5701 9.08522 96.2283 8.74406C96.0565 8.57246 95.8748 8.41108 95.6841 8.26046C94.6238 7.42343 93.2847 6.92383 91.829 6.92383C90.3746 6.92383 89.0367 7.42245 87.9769 8.25806C87.7844 8.40983 87.6011 8.57272 87.428 8.74575C87.0879 9.08548 86.7869 9.46434 86.5323 9.87512C86.0591 10.6389 85.7463 11.5126 85.6413 12.4492C85.6234 12.6087 85.6116 12.77 85.606 12.933V13.3682C85.6445 14.4897 85.9796 15.536 86.5353 16.4309C86.7897 16.8408 87.0905 17.2189 87.4303 17.558C87.6028 17.7302 87.7853 17.8922 87.9769 18.0432C89.0367 18.8788 90.3746 19.3774 91.829 19.3774C93.2847 19.3774 94.6238 18.8778 95.6841 18.0408C95.8749 17.8902 96.0567 17.7286 96.2286 17.557C96.5673 17.2188 96.8674 16.8416 97.1214 16.433C97.7031 15.497 98.0435 14.3954 98.0554 13.2151V13.0863C98.0436 11.9103 97.7057 10.8125 97.1279 9.87877Z" fill="white"/>
<path d="M98.0566 23.7736C98.0566 24.9782 97.7146 26.103 97.1222 27.056C96.8682 27.4645 96.5682 27.8417 96.2295 28.1799C96.0576 28.3515 95.8758 28.5132 95.685 28.6638C94.6246 29.5007 93.2855 30.0003 91.8299 30.0003C90.3755 30.0003 89.0375 29.5017 87.9778 28.6661C87.7862 28.5151 87.6036 28.353 87.4312 28.1809L87.9778 27.6334L89.1051 26.5039C89.8029 27.2004 90.7661 27.6309 91.8299 27.6309C92.8938 27.6309 93.8572 27.2001 94.5551 26.5035C94.7646 26.2942 94.9503 26.061 95.1076 25.8083C95.4532 25.2526 95.6615 24.6028 95.685 23.9061C95.6865 23.8621 95.6873 23.8179 95.6873 23.7736C95.6873 23.7291 95.6865 23.6849 95.685 23.6409C95.6616 22.9482 95.4556 22.3018 95.1133 21.7484C94.955 21.492 94.7674 21.2556 94.5552 21.0438L95.685 19.9121L96.2291 19.3669C96.571 19.7081 96.8734 20.0888 97.1288 20.5017C97.7171 21.4525 98.0566 22.5733 98.0566 23.7736Z" fill="white"/>
<path d="M24.5538 17.5721C23.4272 18.697 21.8719 19.3925 20.1542 19.3925C18.4369 19.3925 16.882 18.6974 15.7555 17.5731C14.6738 16.4936 13.9873 15.0185 13.9312 13.3833V12.9482C13.9873 11.3142 14.6729 9.84002 15.7532 8.76079C16.8798 7.63507 18.4357 6.93896 20.1542 6.93896C21.8717 6.93896 23.427 7.63444 24.5535 8.75911L22.8795 10.4361C22.1817 9.73919 21.2183 9.30841 20.1542 9.30841C19.0894 9.30841 18.1255 9.73982 17.4275 10.4373C16.729 11.1354 16.2968 12.1001 16.2968 13.1657C16.2968 14.2323 16.7297 15.1978 17.4295 15.8961C18.1272 16.5925 19.0905 17.0231 20.1542 17.0231C21.2181 17.0231 22.1815 16.5923 22.8794 15.8957L24.5538 17.5721Z" fill="white"/>
<path d="M36.6593 8.75623C36.487 8.58418 36.3048 8.42236 36.1135 8.27139C35.0535 7.43516 33.715 6.936 32.2599 6.936C30.8057 6.936 29.4676 7.43463 28.4078 8.27032V0.000244141H26.0347V7.70368L26.0369 7.7059V13.3804C26.0931 15.0155 26.7797 16.4906 27.8613 17.5701C28.0337 17.7422 28.2162 17.9043 28.4078 18.0553V13.3657C28.4044 13.2984 28.4026 13.2309 28.4026 13.1629C28.4026 13.0947 28.4044 13.0272 28.4078 12.96C28.4424 12.2927 28.6465 11.6703 28.978 11.1349C29.1358 10.8802 29.3224 10.6451 29.5333 10.4344C30.2313 9.73685 31.1953 9.30545 32.2599 9.30545C33.324 9.30545 34.2875 9.73632 34.9854 10.4331C35.6469 11.0936 36.0698 11.993 36.1135 12.9909C36.1161 13.0479 36.1173 13.1051 36.1173 13.1629C36.1173 13.2204 36.1161 13.2778 36.1135 13.3347V19.3925H38.4867V13.1629C38.4867 11.4415 37.7883 9.88329 36.6593 8.75623Z" fill="white"/>
<path d="M6.22392 13.171L6.2096 13.1799L6.22054 13.1688L6.22258 13.1668L6.22578 13.1698L6.23165 13.1759L6.22392 13.171ZM12.3352 11.9707H2.55438C2.65032 11.676 2.78076 11.3967 2.94107 11.1379C3.09889 10.8831 3.28543 10.6481 3.49633 10.4372C4.1943 9.73973 5.15829 9.30832 6.22303 9.30832C7.28714 9.30832 8.25051 9.7392 8.94839 10.436L10.6223 8.75911C9.49583 7.63435 7.94056 6.93896 6.22303 6.93896C4.76868 6.93896 3.43071 7.4375 2.37096 8.2732C2.17837 8.42497 1.99512 8.58777 1.82201 8.76079C1.48191 9.10053 1.18094 9.47939 0.926386 9.89017C0.537213 10.5182 0.256603 11.2204 0.110875 11.9707C0.0490802 12.2886 0.0113809 12.6151 0 12.9482V13.3833C0.0113809 13.7158 0.0489019 14.0417 0.110519 14.359H9.89221C9.79538 14.6571 9.66325 14.9391 9.50072 15.2004C9.34343 15.4531 9.15778 15.6864 8.94821 15.8956C8.25034 16.5923 7.28696 17.023 6.22303 17.023C5.15927 17.023 4.19608 16.5925 3.49829 15.8961L2.37096 17.0255L1.82432 17.5731C1.99681 17.7452 2.17935 17.9073 2.37096 18.0583C3.43071 18.8939 4.76868 19.3925 6.22303 19.3925C7.94074 19.3925 9.49601 18.6969 10.6226 17.5721C10.9614 17.2339 11.2614 16.8567 11.5154 16.448C11.9071 15.8179 12.1893 15.1128 12.3355 14.359C12.4066 13.9932 12.4456 13.6158 12.4494 13.2301V13.1014C12.4456 12.715 12.4065 12.3372 12.3352 11.9707Z" fill="white"/>
<path d="M84.083 1.18524C84.083 1.83973 83.5524 2.37036 82.8979 2.37036C82.2434 2.37036 81.7128 1.83973 81.7128 1.18524C81.7128 0.530747 82.2434 0.000112772 82.8979 0.000112772C83.5524 0.000112772 84.083 0.530747 84.083 1.18524Z" fill="white"/>
<path d="M74.0633 13.171L74.049 13.1799L74.0599 13.1688L74.062 13.1668L74.0651 13.1698L74.071 13.1759L74.0633 13.171ZM80.1745 11.9707H70.3937C70.4897 11.676 70.6201 11.3967 70.7805 11.1379C70.9382 10.8831 71.1249 10.6481 71.3357 10.4372C72.0337 9.73973 72.9977 9.30832 74.0624 9.30832C75.1265 9.30832 76.0899 9.7392 76.7878 10.436L78.4616 8.75911C77.3352 7.63435 75.78 6.93896 74.0624 6.93896C72.608 6.93896 71.2701 7.4375 70.2103 8.2732C70.0178 8.42497 69.8345 8.58777 69.6614 8.76079C69.3213 9.10053 69.0203 9.47939 68.7657 9.89017C68.3766 10.5182 68.096 11.2204 67.9502 11.9707C67.8884 12.2886 67.8507 12.6151 67.8394 12.9482V13.3833C67.8507 13.7158 67.8883 14.0417 67.9499 14.359H77.7316C77.6347 14.6571 77.5026 14.9391 77.3401 15.2004C77.1829 15.4531 76.9971 15.6864 76.7876 15.8956C76.0897 16.5923 75.1263 17.023 74.0624 17.023C72.9986 17.023 72.0354 16.5925 71.3376 15.8961L70.2103 17.0255L69.6638 17.5731C69.8362 17.7452 70.0187 17.9073 70.2103 18.0583C71.2701 18.8939 72.608 19.3925 74.0624 19.3925C75.7801 19.3925 77.3355 18.6969 78.462 17.5721C78.8007 17.2339 79.1007 16.8567 79.3549 16.448C79.7464 15.8179 80.0286 15.1128 80.1749 14.359C80.2459 13.9932 80.285 13.6158 80.2888 13.2301V13.1014C80.285 12.715 80.2458 12.3372 80.1745 11.9707Z" fill="white"/>
</svg>
