<svg width="100" height="32" viewBox="0 0 100 32" fill="none" xmlns="http://www.w3.org/2000/svg">
<path d="M12.0727 0L6.21968 0.273833L5.97168 18.2718L9.40602 18.308L10.0168 17.0768L12.1965 15.9067L12.0727 0Z" fill="white"/>
<path fill-rule="evenodd" clip-rule="evenodd" d="M8.10974 20.9203L8.90474 19.318L5.19041 19.2832L5.46832 1.35645L5.37774 1.35978L3.63499 1.42428L3.23957 19.7733L0.384069 22.84L0.149902 29.053L7.62899 29.0412L8.10974 20.9203Z" fill="white"/>
<path fill-rule="evenodd" clip-rule="evenodd" d="M14.748 14.5368L14.5537 1.0708L12.949 1.0798L12.835 1.08397L12.9612 15.4961L14.748 14.5368Z" fill="white"/>
<path fill-rule="evenodd" clip-rule="evenodd" d="M12.7276 21.2815L13.6395 20.1873L14.5513 21.3728L14.4906 24.4428L12.6364 24.382L12.7276 21.2815ZM16.5272 21.7071L17.439 20.7344L18.1989 21.7375L18.1382 24.6555L16.4663 24.5948L16.5272 21.7071ZM20.3267 22.1934L21.0866 21.3119L21.7858 22.163L21.8162 24.9291L20.2355 24.8987L20.3267 22.1934ZM27.5003 22.1023L28.0778 23.0445L28.017 25.3547H26.8316L26.7708 22.9229L27.5003 22.1023ZM30.1143 22.315L30.7223 23.1661L30.7831 25.4154L29.5064 25.4459L29.476 23.1965L30.1143 22.315ZM32.3333 22.619L32.9108 23.4397V25.537L31.8469 25.5978L31.8165 23.4093L32.3333 22.619ZM9.19141 21.1903L8.70508 28.9718L22.8213 29.0177L22.9103 24.7265L23.5488 24.7635V22.5582L24.3694 21.6463L25.1293 22.5278L25.1013 24.8535L25.7068 24.8886L25.7967 29.0273L33.6708 29.0529L33.458 21.1903L28.0069 17.9987L15.7571 15.3542L10.9747 17.786L9.19141 21.1903Z" fill="white"/>
<path d="M33.6709 30.0874H0V31.1782H33.6709V30.0874Z" fill="white"/>
<path d="M39.9473 29.8787L40.5308 28.4625C41.1548 28.9001 41.7685 29.119 42.3725 29.119C43.3003 29.119 43.7644 28.7948 43.7644 28.1465C43.7644 27.8425 43.6549 27.5529 43.4361 27.2772C43.2174 27.0017 42.7665 26.6928 42.0837 26.3503C41.4009 26.008 40.941 25.7264 40.704 25.5055C40.4668 25.2846 40.2845 25.0223 40.1569 24.7183C40.0293 24.4145 39.9655 24.0781 39.9655 23.7094C39.9655 23.0205 40.2178 22.4492 40.7222 21.9952C41.2267 21.5415 41.8741 21.3145 42.6643 21.3145C43.6934 21.3145 44.4491 21.507 44.9314 21.892L44.4512 23.2535C43.896 22.8564 43.3105 22.6579 42.6947 22.6579C42.3299 22.6579 42.0473 22.7541 41.8467 22.9465C41.6461 23.139 41.5459 23.3893 41.5459 23.6971C41.5459 24.2077 42.1111 24.7386 43.2416 25.2897C43.8373 25.5815 44.2668 25.8499 44.5302 26.0951C44.7935 26.3403 44.9942 26.626 45.1319 26.952C45.2697 27.2783 45.3386 27.642 45.3386 28.0431C45.3386 28.7644 45.0539 29.358 44.4847 29.824C43.9154 30.2901 43.1524 30.523 42.1962 30.523C41.3655 30.523 40.6158 30.3082 39.9473 29.8787Z" fill="white"/>
<path d="M51.7515 24.3777L51.1011 25.5143C50.7445 25.178 50.2663 25.0098 49.6666 25.0098C49.0912 25.0098 48.6364 25.2013 48.3021 25.5843C47.9678 25.9672 47.8006 26.497 47.8006 27.1738C47.8006 28.5393 48.451 29.2221 49.7516 29.2221C50.3149 29.2221 50.8114 29.0357 51.2408 28.6628L51.8001 29.8603C51.3584 30.1359 50.9723 30.31 50.6421 30.383C50.312 30.4559 49.9219 30.4924 49.4721 30.4924C48.4671 30.4924 47.674 30.1997 47.0925 29.6141C46.511 29.0286 46.2202 28.2152 46.2202 27.1738C46.2202 26.1486 46.5384 25.3198 47.1745 24.6878C47.8107 24.0556 48.6779 23.7395 49.7761 23.7395C50.5338 23.7395 51.1922 23.9523 51.7515 24.3777Z" fill="white"/>
<path d="M57.2278 30.371V26.3593C57.2278 25.9582 57.1022 25.636 56.851 25.393C56.5998 25.1498 56.2715 25.0282 55.8663 25.0282C55.615 25.0282 55.3618 25.0961 55.1065 25.2318C54.8513 25.3676 54.669 25.5226 54.5595 25.6968V30.371H53.0156V21.436L54.5595 21.0713V24.2745C54.9525 23.918 55.4935 23.7396 56.1825 23.7396C56.9969 23.7396 57.6291 23.9655 58.079 24.4174C58.5285 24.8692 58.7536 25.5165 58.7536 26.3593V30.371H57.2278Z" fill="white"/>
<path d="M65.0928 21.2537C65.3318 21.2537 65.5354 21.3387 65.7036 21.5089C65.8718 21.6792 65.9558 21.8838 65.9558 22.1229C65.9558 22.362 65.8718 22.5656 65.7036 22.7337C65.5354 22.9019 65.3318 22.9859 65.0928 22.9859C64.8536 22.9859 64.6491 22.9019 64.4788 22.7337C64.3088 22.5656 64.2235 22.362 64.2235 22.1229C64.2235 21.8838 64.3088 21.6792 64.4788 21.5089C64.6491 21.3387 64.8536 21.2537 65.0928 21.2537ZM61.5492 27.1009C61.5492 28.5354 62.0658 29.2526 63.0991 29.2526C63.5732 29.2526 63.949 29.0662 64.2266 28.6934C64.5041 28.3207 64.643 27.7899 64.643 27.1009C64.643 25.6867 64.1284 24.9797 63.0991 24.9797C62.6251 24.9797 62.2481 25.1661 61.9686 25.5388C61.6889 25.9117 61.5492 26.4323 61.5492 27.1009ZM61.3242 21.2537C61.5633 21.2537 61.7669 21.3387 61.935 21.5089C62.1033 21.6792 62.1874 21.8838 62.1874 22.1229C62.1874 22.362 62.1033 22.5656 61.935 22.7337C61.7669 22.9019 61.5633 22.9859 61.3242 22.9859C61.0852 22.9859 60.8806 22.9019 60.7103 22.7337C60.5402 22.5656 60.455 22.362 60.455 22.1229C60.455 21.8838 60.5402 21.6792 60.7103 21.5089C60.8806 21.3387 61.0852 21.2537 61.3242 21.2537ZM59.9688 27.1009C59.9688 26.1082 60.2554 25.2998 60.8288 24.6757C61.4023 24.0517 62.159 23.7397 63.0991 23.7397C64.0877 23.7397 64.8556 24.0396 65.4028 24.6392C65.9498 25.239 66.2233 26.0596 66.2233 27.1009C66.2233 28.1383 65.9446 28.963 65.3876 29.5748C64.8303 30.1867 64.0675 30.4926 63.0991 30.4926C62.1103 30.4926 61.3414 30.1837 60.7924 29.5656C60.2433 28.9478 59.9688 28.1262 59.9688 27.1009Z" fill="white"/>
<path d="M71.6268 30.3708V26.6084C71.6268 26.0533 71.5205 25.648 71.3077 25.3928C71.095 25.1374 70.7475 25.0098 70.2653 25.0098C70.0425 25.0098 69.8044 25.0728 69.5512 25.1983C69.2979 25.3239 69.1003 25.48 68.9586 25.6663V30.3708H67.439V23.8611H68.533L68.8126 24.4689C69.2259 23.9827 69.8358 23.7395 70.6423 23.7395C71.4162 23.7395 72.0271 23.9715 72.4747 24.4354C72.9225 24.8995 73.1463 25.5468 73.1463 26.3774V30.3708H71.6268Z" fill="white"/>
<path d="M78.9998 30.371V26.3593C78.9998 25.9582 78.8741 25.636 78.623 25.393C78.3716 25.1498 78.0434 25.0282 77.6383 25.0282C77.3869 25.0282 77.1338 25.0961 76.8785 25.2318C76.6232 25.3676 76.4408 25.5226 76.3314 25.6968V30.371H74.7876V21.436L76.3314 21.0713V24.2745C76.7245 23.918 77.2654 23.7396 77.9543 23.7396C78.7689 23.7396 79.4009 23.9655 79.8508 24.4174C80.3004 24.8692 80.5254 25.5165 80.5254 26.3593V30.371H78.9998Z" fill="white"/>
<path d="M83.3828 26.4383H86.5799C86.4745 25.4861 85.9477 25.0098 84.9996 25.0098C84.1324 25.0098 83.5935 25.4861 83.3828 26.4383ZM87.978 27.5809H83.328C83.3564 28.0997 83.5347 28.5028 83.863 28.7906C84.1912 29.0783 84.6328 29.2221 85.188 29.2221C85.881 29.2221 86.4077 29.0418 86.7684 28.6811L87.3579 29.8421C86.823 30.2758 86.0247 30.4924 84.9631 30.4924C83.9703 30.4924 83.1853 30.2017 82.6078 29.6203C82.0304 29.0388 81.7417 28.2274 81.7417 27.1859C81.7417 26.1608 82.0587 25.33 82.693 24.6938C83.327 24.0577 84.0879 23.7395 84.9752 23.7395C85.9195 23.7395 86.6771 24.0213 87.2486 24.5844C87.8199 25.1477 88.1056 25.8649 88.1056 26.7361C88.1056 26.9226 88.063 27.2041 87.978 27.5809Z" fill="white"/>
<path d="M93.0835 25.2773C92.812 25.099 92.5142 25.0098 92.1901 25.0098C91.8375 25.0098 91.5245 25.17 91.251 25.4901C90.9776 25.8102 90.8408 26.2012 90.8408 26.6632V30.3708H89.3213V23.8611H90.8408V24.4567C91.2662 23.9787 91.8315 23.7395 92.5365 23.7395C93.0553 23.7395 93.4523 23.8185 93.7279 23.9766L93.0835 25.2773Z" fill="white"/>
<path d="M94.2134 30.3708V29.8542L97.745 25.1861H94.2742V23.8611H99.9635V24.396L96.5595 29.0458H99.9999V30.3708H94.2134Z" fill="white"/>
</svg>
