<svg width="42" height="42" viewBox="0 0 42 42" fill="none" xmlns="http://www.w3.org/2000/svg">
<path d="M20.6064 11.903C21.1367 11.0913 21.6509 10.3423 22.1245 9.69358C21.6355 9.63034 21.1379 9.59424 20.6316 9.59424C14.258 9.59424 9.09131 14.761 9.09131 21.1345C9.09131 25.1193 11.111 28.6324 14.1825 30.706C14.446 29.913 14.7194 29.1568 14.9948 28.4438C12.8087 26.7554 11.3994 24.1103 11.3994 21.1345C11.3994 16.0442 15.5192 11.9166 20.6064 11.903Z" fill="white"/>
<path d="M20.6319 30.3669C20.0845 30.3669 19.5492 30.3165 19.028 30.2252C18.4808 31.064 18.0328 31.7804 17.7134 32.3019C18.6456 32.5449 19.6235 32.675 20.6319 32.675C27.0054 32.675 32.1722 27.5082 32.1722 21.1347C32.1722 18.0146 30.9319 15.1858 28.9201 13.1086C28.3412 13.6726 27.8009 14.2216 27.2967 14.7498C28.8858 16.4082 29.8641 18.6565 29.8641 21.1347C29.8641 26.2335 25.7307 30.3669 20.6319 30.3669Z" fill="white"/>
<path d="M25.739 20.6434C25.739 20.6434 24.7078 19.9559 22.5962 19.3175C22.5962 19.3175 26.4757 14.0139 32.4177 9.20137C32.4177 9.20137 27.0968 7.97363 24.364 7.97363C22.9399 9.05403 18.3729 16.1255 16.2613 20.8398C16.2613 20.8398 18.0292 21.6747 18.5693 22.2149C18.5693 22.2149 16.0648 26.4381 14.3461 32.1346L12.8237 31.0543L13.855 36.3088L18.5939 33.4114L16.6541 32.9203C16.6541 32.9203 21.0493 25.3332 25.739 20.6434Z" fill="white"/>
<path d="M16.9654 40.0484L16.5782 39.9595C16.4148 39.9221 16.2958 39.8574 16.221 39.765C16.1462 39.6727 16.1232 39.5636 16.1519 39.4382C16.182 39.3069 16.2521 39.214 16.3621 39.1596C16.4721 39.105 16.6087 39.0963 16.772 39.1337L17.1549 39.2215L16.9654 40.0484ZM16.6747 41.3171L16.4099 41.2567C16.0658 41.1776 15.92 41.0231 15.9728 40.7926C16.0012 40.6685 16.0655 40.5808 16.1656 40.5292C16.2656 40.4778 16.3886 40.4688 16.5344 40.5022L16.8451 40.5733L16.6747 41.3171ZM15.8753 38.646C15.631 38.7674 15.476 38.9717 15.4101 39.2592C15.365 39.456 15.3935 39.6381 15.4955 39.8059C15.5976 39.9736 15.757 40.0968 15.9737 40.1756L15.9717 40.1846C15.7825 40.1932 15.616 40.2482 15.4725 40.3486C15.3289 40.4492 15.2377 40.5842 15.1989 40.7534C15.1454 40.9868 15.1981 41.189 15.3568 41.3605C15.5155 41.5321 15.77 41.6578 16.1199 41.7381L17.2619 41.9999L17.9808 38.8627L16.7755 38.5865C16.4197 38.505 16.1196 38.5249 15.8753 38.646Z" fill="white"/>
<path d="M14.6308 37.9722L13.8926 39.5916C13.7933 39.8094 13.6868 40.0666 13.5729 40.3636L13.5545 40.355C13.6122 40.1167 13.6437 39.9665 13.6487 39.9047L13.8487 37.6157L13.3095 37.3699L11.7157 39.0483C11.6525 39.1148 11.5629 39.2302 11.447 39.3945L11.4305 39.387C11.5512 39.1657 11.6547 38.9603 11.7409 38.7712L12.5396 37.0189L11.8882 36.7219L10.5532 39.6506L11.4947 40.0796L12.8825 38.6208C12.9779 38.5194 13.081 38.3963 13.1915 38.251L13.2039 38.2565C13.1617 38.4067 13.1328 38.5621 13.1171 38.7226L12.9242 40.7313L13.8901 41.1716L15.2251 38.2429L14.6308 37.9722Z" fill="white"/>
<path d="M9.83675 35.2314L9.49781 35.712L10.4826 36.4066L10.0582 37.0083L9.19811 36.4014L8.85917 36.8819L9.71919 37.4888L9.30658 38.0738L8.38223 37.4214L8.04199 37.904L9.55866 38.9738L11.4139 36.3441L9.83675 35.2314Z" fill="white"/>
<path d="M4.11621 33.9387L4.61283 34.5121L6.73551 33.5554C6.8496 33.5039 6.94785 33.4495 7.03044 33.392L7.03923 33.4021C6.97407 33.4685 6.90743 33.5548 6.83925 33.6613L5.58568 35.6352L6.097 36.2254L7.81252 33.2904L7.27473 32.6694L4.11621 33.9387Z" fill="white"/>
<path d="M4.23189 33.0536L5.97111 31.8834L6.12147 32.1069L6.58705 31.7936L5.88166 30.7454L5.41607 31.0584L5.56642 31.282L3.82732 32.4523L3.67685 32.2287L3.21143 32.542L3.91682 33.5902L4.38237 33.2772L4.23189 33.0536Z" fill="white"/>
<path d="M4.78417 28.7446L4.26523 29.0213L4.82576 30.073L2.50439 31.3102L2.84539 31.9499L5.68565 30.4361L4.78417 28.7446Z" fill="white"/>
<path d="M1.34063 25.7196C1.24367 25.7099 1.14827 25.711 1.05463 25.7234L1.05073 25.7058C1.15832 25.6722 1.24899 25.6345 1.32266 25.5928L2.30845 25.0286L2.4805 25.8342L1.34063 25.7196ZM3.99243 26.6606L3.96081 26.6726L3.80468 25.9415L3.05715 25.8694L2.81801 24.75L3.47035 24.3766L3.30534 23.604L0.396973 25.3957L0.576515 26.2363L3.89146 26.6989L3.44258 26.869L3.86528 27.9833L1.4058 28.9162L1.6629 29.5942L4.67224 28.4526L3.99243 26.6606Z" fill="white"/>
<path d="M3.26686 22.7193L1.48731 22.7482C1.24792 22.7521 0.969832 22.7664 0.653004 22.7908L0.652585 22.7707C0.892729 22.7205 1.04178 22.6844 1.09975 22.6626L3.25292 21.8599L3.24328 21.2674L1.04304 20.5489C0.955885 20.5204 0.813156 20.4891 0.61506 20.4549L0.614767 20.4368C0.866386 20.4508 1.09627 20.456 1.30417 20.4527L3.22959 20.4215L3.21795 19.7056L0 19.7578L0.0167102 20.7922L1.93028 21.4189C2.06279 21.4617 2.21834 21.5018 2.397 21.5393L2.39717 21.5527C2.24351 21.5792 2.09073 21.6199 1.93891 21.6747L0.0421319 22.3631L0.0594287 23.4246L3.2775 23.3724L3.26686 22.7193Z" fill="white"/>
<path d="M1.03954 17.2364C1.09063 16.9948 1.22155 16.8238 1.43246 16.723C1.64337 16.6222 1.912 16.6064 2.23841 16.6753C2.55176 16.7415 2.78152 16.8649 2.92756 17.0456C3.07372 17.2263 3.12092 17.439 3.06924 17.6834C3.0192 17.9205 2.88798 18.0932 2.67548 18.2012C2.46315 18.3094 2.20085 18.3304 1.88909 18.2645C1.58164 18.1996 1.35 18.0743 1.19433 17.8884C1.03853 17.7027 0.987018 17.4853 1.03954 17.2364ZM1.76881 19.0191C2.24013 19.1187 2.65261 19.0573 3.00613 18.8354C3.35956 18.6134 3.58404 18.2769 3.67911 17.826C3.77682 17.3633 3.70457 16.9562 3.46234 16.6046C3.22001 16.2529 2.85142 16.0249 2.35652 15.9203C1.87501 15.8186 1.45776 15.8754 1.10487 16.0906C0.752109 16.306 0.528257 16.6384 0.433271 17.0878C0.332841 17.5636 0.405797 17.978 0.652391 18.3314C0.898859 18.6848 1.27101 18.9139 1.76881 19.0191Z" fill="white"/>
<path d="M1.53746 14.9488C1.62507 15.0556 1.74694 15.1394 1.90291 15.2004C2.10213 15.2786 2.29466 15.2876 2.4804 15.2278C2.66614 15.1679 2.8536 15.0402 3.04277 14.8442C3.11632 14.7671 3.1868 14.6959 3.2541 14.6306C3.32145 14.5654 3.38607 14.5116 3.44763 14.469C3.50933 14.4264 3.56963 14.3975 3.62877 14.382C3.68774 14.3666 3.74658 14.3703 3.80513 14.3932C3.84831 14.4101 3.88428 14.4364 3.91305 14.4716C3.94166 14.507 3.96139 14.5513 3.9719 14.6044C3.98237 14.6574 3.983 14.7188 3.97349 14.7881C3.96398 14.8576 3.94254 14.9347 3.90916 15.0197C3.85245 15.1646 3.77091 15.2981 3.66428 15.4204C3.55782 15.5426 3.42996 15.6443 3.28074 15.7257L3.94957 15.9877C4.04783 15.9008 4.13992 15.7886 4.22595 15.6512C4.31184 15.5136 4.3871 15.3628 4.45156 15.1984C4.51429 15.0381 4.55844 14.8799 4.58432 14.7238C4.61024 14.5675 4.60924 14.4214 4.58147 14.2851C4.5537 14.1489 4.49541 14.0269 4.40666 13.919C4.31792 13.8111 4.18997 13.7245 4.02282 13.659C3.90154 13.6115 3.78833 13.5881 3.68288 13.5885C3.57738 13.5889 3.47582 13.6094 3.37799 13.6498C3.28015 13.6904 3.18433 13.7472 3.09052 13.8206C2.99675 13.8938 2.90134 13.9806 2.80426 14.0808C2.73361 14.1543 2.66769 14.2192 2.60629 14.2756C2.54485 14.3319 2.48672 14.3775 2.43219 14.4123C2.37754 14.4471 2.32515 14.47 2.2751 14.481C2.22501 14.4919 2.17496 14.4875 2.12475 14.4679C2.07885 14.4498 2.04199 14.4218 2.01439 14.3837C1.98679 14.3456 1.96807 14.2997 1.95857 14.246C1.94893 14.1925 1.94923 14.1315 1.95915 14.0632C1.96908 13.9946 1.98893 13.9221 2.019 13.8455C2.04086 13.7898 2.06804 13.7325 2.10071 13.6738C2.13338 13.6151 2.17065 13.5579 2.21266 13.5019C2.25466 13.4461 2.3004 13.3937 2.35002 13.3449C2.39965 13.296 2.45188 13.2533 2.50628 13.2169L1.88146 12.9722C1.80264 13.0585 1.73011 13.1584 1.66423 13.2714C1.59818 13.3847 1.53461 13.5192 1.47346 13.6753C1.41127 13.8341 1.36943 13.9912 1.34786 14.1467C1.32642 14.3021 1.33073 14.4481 1.3608 14.5844C1.391 14.7208 1.44984 14.8422 1.53746 14.9488Z" fill="white"/>
<path d="M5.32771 13.0636L3.82298 12.1132C3.62053 11.9853 3.38001 11.845 3.10146 11.6919L3.11226 11.6749C3.34072 11.7643 3.48517 11.8158 3.54573 11.8292L5.78681 12.3368L6.10317 11.8358L4.65569 10.0296C4.59827 9.95799 4.49617 9.85367 4.34913 9.71659L4.35876 9.70135C4.56163 9.85082 4.75106 9.98102 4.92691 10.0921L6.55507 11.1205L6.93735 10.515L4.21615 8.79639L3.66371 9.67127L4.92172 11.2435C5.00904 11.3518 5.11722 11.4705 5.24613 11.5998L5.23892 11.6112C5.09594 11.5492 4.94588 11.4996 4.78879 11.4623L2.82479 10.9996L2.25781 11.8971L4.97897 13.6158L5.32771 13.0636Z" fill="white"/>
<path d="M5.47906 6.97032L5.42524 5.96239L4.99635 6.42478L5.13119 7.34552L5.47906 6.97032Z" fill="white"/>
<path d="M7.36026 10.1138L8.67276 8.69874L8.24159 8.29878L7.42199 9.18242L6.88231 8.6819L7.59806 7.91004L7.16689 7.51025L6.45111 8.28211L5.92614 7.79524L6.6954 6.96584L6.26265 6.56445L5.00049 7.92533L7.36026 10.1138Z" fill="white"/>
<path d="M8.65195 6.39093L8.40695 6.5876L7.8463 5.88941L8.10181 5.68424C8.36419 5.47349 8.58361 5.47781 8.75971 5.69705C8.84402 5.80209 8.8774 5.92019 8.85985 6.05128C8.8426 6.18031 8.77324 6.29352 8.65195 6.39093ZM9.52123 7.97553L8.74979 7.01462L8.90198 6.89249C8.93712 6.86427 8.97523 6.84555 9.01665 6.83637C9.05824 6.82703 9.10372 6.82515 9.15306 6.83047C9.20252 6.83591 9.25604 6.84701 9.31392 6.86397C9.37159 6.88098 9.43475 6.90225 9.50322 6.92784L10.4121 7.26021L11.0612 6.73896L9.99126 6.3777C9.93585 6.35885 9.87701 6.3413 9.81502 6.32489C9.753 6.30851 9.69139 6.29599 9.63071 6.28719C9.56998 6.27844 9.51156 6.27496 9.45548 6.27685C9.39936 6.27873 9.34801 6.28878 9.30123 6.30709L9.29562 6.30001C9.36108 6.2072 9.41129 6.11125 9.4461 6.01241C9.48082 5.91345 9.49878 5.81461 9.50004 5.71573C9.50121 5.61693 9.48555 5.51964 9.45288 5.42399C9.42021 5.32846 9.3687 5.23682 9.29851 5.14934C8.93323 4.69426 8.44594 4.71126 7.83696 5.20026L6.94092 5.91977L8.95597 8.42927L9.52123 7.97553Z" fill="white"/>
<path d="M11.7964 6.33631L10.9529 4.78194C10.8415 4.57677 10.7535 4.42717 10.6886 4.33294L10.6965 4.32859C10.7513 4.36686 10.8412 4.41951 10.966 4.48627L13.0964 5.63078L13.7394 5.28175L12.2041 2.45312L11.6026 2.77971L12.4516 4.34383C12.5565 4.53719 12.632 4.66397 12.6782 4.72394L12.6704 4.72813C12.5855 4.67548 12.4965 4.62426 12.4031 4.57447L10.3461 3.46161L9.65967 3.8341L11.1949 6.66289L11.7964 6.33631Z" fill="white"/>
<path d="M14.318 2.57364C14.4037 2.3469 14.568 2.19554 14.8107 2.11945C15.0464 2.04565 15.2597 2.07614 15.4508 2.21066C15.6419 2.34531 15.7873 2.5718 15.887 2.89018C15.9827 3.19574 15.9876 3.45645 15.9016 3.67238C15.8154 3.88819 15.6532 4.03348 15.4147 4.10815C15.1833 4.18052 14.9685 4.15062 14.7704 4.01823C14.5722 3.88602 14.4254 3.66778 14.3302 3.36364C14.2363 3.06369 14.2322 2.80038 14.318 2.57364ZM14.3794 4.61704C14.746 4.81656 15.1492 4.84751 15.589 4.70968C16.0402 4.56838 16.3597 4.30612 16.5478 3.9227C16.7358 3.53916 16.7542 3.10624 16.6032 2.62356C16.456 2.15383 16.2022 1.81774 15.8418 1.6155C15.4813 1.41321 15.0819 1.38084 14.6435 1.51808C14.1795 1.66337 13.8538 1.92998 13.6663 2.31784C13.479 2.70586 13.4613 3.14263 13.6134 3.62807C13.7573 4.08788 14.0126 4.41748 14.3794 4.61704Z" fill="white"/>
<path d="M13.7773 1.44014C13.8565 1.47724 13.9445 1.48072 14.0417 1.45019C14.1387 1.41987 14.2091 1.36806 14.2529 1.29481C14.2965 1.22144 14.3047 1.14132 14.2774 1.05429C14.2507 0.968517 14.1983 0.907832 14.1203 0.871689C14.0425 0.835881 13.9549 0.832991 13.8579 0.863355C13.7636 0.893006 13.6938 0.945064 13.6481 1.01957C13.6024 1.09429 13.593 1.1744 13.62 1.26013C13.6458 1.34301 13.6984 1.40299 13.7773 1.44014Z" fill="white"/>
<path d="M14.7608 1.13301C14.8397 1.16958 14.9268 1.17288 15.0225 1.14281C15.1196 1.11245 15.1903 1.06006 15.2344 0.985971C15.2786 0.911759 15.2874 0.831766 15.2605 0.746162C15.2337 0.660391 15.1806 0.599831 15.1012 0.564274C15.0219 0.52876 14.9344 0.526037 14.8388 0.55594C14.7431 0.585885 14.6731 0.637649 14.6288 0.711192C14.5843 0.784734 14.5757 0.864978 14.603 0.952048C14.6293 1.03631 14.682 1.09662 14.7608 1.13301Z" fill="white"/>
<path d="M18.1944 4.04533L17.994 2.48264L18.0051 2.48117C18.0553 2.56678 18.091 2.62172 18.1123 2.64618L19.2208 3.9137L20.0584 3.80624L20.0593 3.86148L21.3228 3.84091L21.3135 3.27996L21.0442 3.28428L21.0102 1.18836L21.2796 1.18392L21.2707 0.622967L20.0071 0.643405L20.0162 1.20448L20.2856 1.20017L20.3195 3.29605L20.0502 3.30036L20.057 3.72047L18.7061 2.28266L19.6237 0.617188L18.7666 0.727124L18.0559 2.17142C18.0242 2.25401 18.0022 2.31717 17.9897 2.36106L17.9785 2.36231L17.7848 0.853143L17.0659 0.945365L17.4755 4.13756L18.1944 4.04533Z" fill="white"/>
<path d="M25.6399 3.86632L24.4602 3.62002L24.6107 2.89937L25.6411 3.11443L25.7611 2.53882L24.7307 2.32372L24.8771 1.62297L25.9844 1.85399L26.1049 1.2762L24.2879 0.896973L23.6304 4.04758L25.5199 4.44192L25.6399 3.86632Z" fill="white"/>
<path d="M26.189 0.248291L25.5718 0.119382L24.8524 0.709814L25.3534 0.814407L26.189 0.248291Z" fill="white"/>
<path d="M25.8276 4.40112C25.9174 4.49682 26.0322 4.58573 26.1721 4.66756C26.3119 4.74944 26.465 4.82022 26.6313 4.87977C26.7933 4.93774 26.9527 4.97748 27.1095 4.99876C27.2666 5.02003 27.4125 5.01471 27.5481 4.98292C27.6833 4.95114 27.8036 4.88941 27.9089 4.79748C28.0142 4.70567 28.0971 4.57534 28.1575 4.40631C28.2015 4.28373 28.2216 4.16977 28.2182 4.06431C28.2144 3.95903 28.1912 3.85801 28.1477 3.76147C28.1045 3.66477 28.045 3.57071 27.9687 3.4792C27.8928 3.38756 27.8033 3.29463 27.7002 3.20052C27.6246 3.13217 27.5579 3.06801 27.4997 3.00833C27.4416 2.94861 27.3944 2.8919 27.3581 2.83826C27.3216 2.78473 27.2971 2.73309 27.2847 2.6833C27.2724 2.63367 27.2752 2.58349 27.2934 2.53269C27.31 2.48621 27.3371 2.44864 27.3745 2.41987C27.4116 2.39109 27.4571 2.37112 27.5104 2.36006C27.5635 2.34896 27.6246 2.34737 27.6933 2.35529C27.7619 2.3632 27.8349 2.38104 27.9126 2.40881C27.9687 2.42896 28.0268 2.45454 28.0864 2.48549C28.1459 2.51628 28.2044 2.55196 28.2616 2.59225C28.3186 2.63266 28.3724 2.67685 28.4225 2.72501C28.4728 2.77321 28.5172 2.82418 28.5551 2.87741L28.7816 2.24568C28.6927 2.16942 28.5908 2.09994 28.476 2.03733C28.3609 1.97463 28.2245 1.91504 28.0668 1.8585C27.9063 1.80095 27.7477 1.76368 27.5918 1.74672C27.4358 1.72976 27.2899 1.73838 27.1547 1.77247C27.0192 1.80657 26.8995 1.86901 26.7956 1.95964C26.6914 2.05044 26.6111 2.17457 26.5548 2.33229C26.4826 2.53382 26.4791 2.72648 26.5444 2.91033C26.6094 3.09419 26.7427 3.27792 26.9441 3.46123C27.0235 3.5326 27.0966 3.60094 27.1639 3.6664C27.231 3.73186 27.2868 3.79473 27.3311 3.85499C27.3754 3.91543 27.4062 3.97486 27.4232 4.03353C27.4404 4.09208 27.4384 4.15092 27.4171 4.21006C27.4016 4.25378 27.3765 4.29047 27.342 4.32025C27.3075 4.35007 27.2638 4.37092 27.2111 4.38298C27.1582 4.39509 27.0969 4.39739 27.0273 4.38989C26.9576 4.38244 26.8799 4.3633 26.7942 4.33248C26.6474 4.28 26.5116 4.20227 26.3865 4.09941C26.2613 3.99655 26.1556 3.87183 26.0699 3.72508L25.8276 4.40112Z" fill="white"/>
<path d="M31.0316 6.39351L30.8035 6.25036L31.9175 4.4747L32.1458 4.61773L32.4438 4.1425L31.3735 3.47095L31.0753 3.94629L31.3035 4.08944L30.1894 5.86506L29.9612 5.72191L29.6631 6.19726L30.7335 6.86873L31.0316 6.39351Z" fill="white"/>
<path d="M31.5573 7.45705L32.6922 6.10049C32.8418 5.92154 32.9486 5.78455 33.0124 5.68977L33.0193 5.69551C33.0038 5.76055 32.988 5.86341 32.9718 6.00396L32.6916 8.40603L33.2527 8.87564L35.3181 6.4071L34.793 5.96786L33.6509 7.33292C33.5099 7.50166 33.4199 7.61846 33.381 7.6835L33.3742 7.67776C33.392 7.57964 33.4067 7.47795 33.4187 7.37275L33.6964 5.05054L33.0973 4.54932L31.0322 7.01781L31.5573 7.45705Z" fill="white"/>
<path d="M34.106 9.86707L35.0515 9.0493L35.7344 9.83859L36.1789 9.454L35.4964 8.66459L36.0938 8.14782L36.8367 9.00671L37.2832 8.62057L36.0661 7.21338L33.6318 9.31876L34.106 9.86707Z" fill="white"/>
<path d="M36.7565 10.648C37.0235 10.4822 37.2775 10.4126 37.5184 10.4392C37.7595 10.4657 37.9471 10.5869 38.0812 10.8032C38.2113 11.0129 38.2352 11.2272 38.1526 11.4457C38.0697 11.6644 37.8867 11.8616 37.6033 12.0376C37.3311 12.2063 37.0799 12.2761 36.8494 12.2465C36.6186 12.217 36.4377 12.0962 36.3059 11.8838C36.1781 11.6779 36.1536 11.4624 36.2322 11.2374C36.311 11.0125 36.4857 10.816 36.7565 10.648ZM35.5549 11.008C35.453 11.4128 35.5238 11.811 35.7666 12.2026C36.0161 12.6043 36.3499 12.8485 36.768 12.9349C37.1864 13.0214 37.6102 12.9313 38.0398 12.6646C38.4581 12.405 38.7203 12.0754 38.8262 11.676C38.9324 11.2765 38.8641 10.8816 38.6219 10.4913C38.3655 10.0781 38.0262 9.82919 37.6038 9.74447C37.1814 9.65957 36.7539 9.75133 36.3217 10.0197C35.9125 10.2738 35.6567 10.6032 35.5549 11.008Z" fill="white"/>
<path d="M39.5402 13.5542L39.6619 13.8585C39.7868 14.1711 39.7186 14.3797 39.4576 14.484C39.3325 14.534 39.2099 14.5315 39.0896 14.4764C38.971 14.4221 38.883 14.3228 38.8254 14.1784L38.7086 13.8867L39.5402 13.5542ZM37.0561 14.5472L38.2002 14.0898L38.2727 14.2711C38.2894 14.3128 38.296 14.3548 38.2928 14.3972C38.2897 14.4395 38.2781 14.4835 38.2586 14.5293C38.239 14.575 38.2129 14.623 38.1798 14.6733C38.1467 14.7235 38.1078 14.7778 38.0632 14.8358L37.48 15.6079L37.789 16.3811L38.4471 15.4632C38.4813 15.4157 38.5152 15.3646 38.5489 15.3099C38.5826 15.2554 38.6125 15.2003 38.6387 15.1448C38.6649 15.0893 38.6853 15.0343 38.7 14.9802C38.7144 14.926 38.7198 14.8739 38.7161 14.8239L38.7244 14.8205C38.7941 14.9103 38.8712 14.9862 38.9555 15.0484C39.0401 15.1105 39.1293 15.1566 39.2234 15.1866C39.3178 15.2167 39.4153 15.23 39.5163 15.2267C39.6173 15.2233 39.7197 15.2009 39.8242 15.1593C40.366 14.9428 40.492 14.4718 40.202 13.7465L39.7755 12.6794L36.7871 13.874L37.0561 14.5472Z" fill="white"/>
<path d="M37.9673 17.1459L39.7187 16.8294C39.9544 16.7869 40.2263 16.7278 40.5351 16.6523L40.5388 16.6721C40.3098 16.7606 40.1688 16.8203 40.115 16.8514L38.1201 17.9919L38.2254 18.5748L40.5129 18.9279C40.6036 18.942 40.7495 18.9498 40.9506 18.9515L40.9538 18.9692C40.7031 18.9962 40.4755 19.0282 40.2709 19.0651L38.3759 19.4075L38.5031 20.1121L41.6702 19.5399L41.4863 18.5217L39.4967 18.213C39.3591 18.1921 39.1991 18.1777 39.0167 18.1697L39.0144 18.1564C39.1617 18.1054 39.3058 18.0406 39.4466 17.9619L41.2069 16.9757L41.0182 15.9309L37.8511 16.5032L37.9673 17.1459Z" fill="white"/>
<path d="M41.0949 21.9829C40.9824 21.9905 40.8854 22.0059 40.804 22.0293L39.7137 22.347L39.735 21.5236L40.8164 21.9017C40.9084 21.9339 41.0014 21.9551 41.0955 21.965L41.0949 21.9829ZM38.4929 20.3242L38.4727 21.1094L39.1826 21.3544L39.1533 22.4988L38.4316 22.7091L38.4111 23.4989L41.658 22.4375L41.6802 21.5782L38.4929 20.3242Z" fill="white"/>
<path d="M40.8084 24.8323L38.2249 24.3499L38.0913 25.0647L40.6749 25.5471L40.5063 26.4494L41.0867 26.5577L41.5563 24.0426L40.9759 23.9343L40.8084 24.8323Z" fill="white"/>
<path d="M40.3407 27.0313L38.3357 26.4195L38.4143 26.162L37.8776 25.9983L37.5088 27.2068L38.0454 27.3705L38.1242 27.113L40.1292 27.7247L40.0507 27.9822L40.5873 28.146L40.9559 26.9375L40.4192 26.7738L40.3407 27.0313Z" fill="white"/>
<path d="M37.5682 32.3831C37.6291 32.4593 37.6968 32.5264 37.7713 32.5845L37.7615 32.5995C37.6619 32.5465 37.5716 32.5083 37.4902 32.485L36.3971 32.1774L36.8508 31.4899L37.5682 32.3831ZM37.1236 28.2019L38.5646 28.8388L38.5603 28.8491C38.461 28.8478 38.3954 28.8499 38.3635 28.8554L36.7055 29.1482L36.3677 29.9123L35.9994 30.4702L36.4719 31.054L35.8412 32.009L35.1175 31.8056L34.6821 32.4648L37.9986 33.2831L38.4722 32.5661L36.5285 29.9446L38.3675 29.5516L39.3179 31.1985L39.6672 30.4084L38.7988 29.0528C38.7447 28.983 38.7021 28.9315 38.6711 28.8981L38.6757 28.8879L40.0675 29.5031L40.3604 28.84L37.4168 27.5388L37.1236 28.2019Z" fill="white"/>
<path d="M36.4671 34.3741L34.8765 33.0087L35.052 32.8044L34.6261 32.4387L33.8032 33.3977L34.2291 33.7632L34.4043 33.5586L35.995 34.9242L35.8197 35.1286L36.2452 35.494L37.0685 34.5352L36.6426 34.1698L36.4671 34.3741Z" fill="white"/>
<path d="M29.4825 39.7785C29.4252 39.6812 29.368 39.6018 29.3104 39.5394L28.5364 38.7083L29.2814 38.357L29.4298 39.493C29.4425 39.5897 29.4655 39.6823 29.4989 39.7707L29.4825 39.7785ZM31.2624 35.6606L32.1659 36.9514L32.1567 36.958C32.0724 36.9054 32.0152 36.8734 31.9853 36.8616L30.4148 36.2539L29.7071 36.7493L29.0837 37.0435L29.1841 37.7876L28.1488 38.2759L27.6363 37.726L26.9219 38.0629L29.3297 40.4857L30.1072 40.1192L29.8051 36.8277L31.6281 37.4593L31.589 39.3604L32.2971 38.8649L32.2557 37.2559C32.2454 37.1681 32.2356 37.1019 32.2261 37.0573L32.2353 37.0507L33.108 38.2975L33.7019 37.8817L31.8563 35.2451L31.2624 35.6606Z" fill="white"/>
<path d="M26.3447 40.9835C26.0202 41.0733 25.8204 40.9826 25.7453 40.7113C25.7097 40.5815 25.7258 40.4598 25.7937 40.3465C25.8605 40.2348 25.9689 40.1583 26.1191 40.1169L26.4218 40.0331L26.6604 40.8963L26.3447 40.9835ZM25.9477 38.3176L26.2759 39.5054L26.0878 39.5572C26.0443 39.5692 26.002 39.5713 25.9603 39.5635C25.9183 39.5554 25.876 39.5394 25.8326 39.5149C25.7894 39.4905 25.7445 39.4588 25.6982 39.4205C25.6519 39.3819 25.6023 39.3376 25.5497 39.287L24.8465 38.622L24.0439 38.8439L24.8839 39.5992C24.9273 39.6383 24.9742 39.6777 25.0246 39.7172C25.0753 39.7569 25.1267 39.7928 25.1791 39.8248C25.2315 39.857 25.2835 39.8832 25.3359 39.9036C25.388 39.9243 25.4392 39.9353 25.4896 39.937L25.4919 39.9457C25.3949 40.0049 25.3109 40.0731 25.2398 40.1502C25.1687 40.2273 25.1132 40.311 25.0729 40.4014C25.0326 40.4918 25.0088 40.5873 25.0007 40.688C24.993 40.7887 25.0041 40.8932 25.0338 41.0013C25.1895 41.5636 25.6435 41.7408 26.3962 41.5328L27.504 41.2267L26.6463 38.1245L25.9477 38.3176Z" fill="white"/>
<path d="M21.0554 39.8711C20.5774 39.8711 20.1898 40.2586 20.1898 40.7366C20.1898 41.2146 20.5774 41.6022 21.0554 41.6022C21.5334 41.6022 21.9209 41.2146 21.9209 40.7366C21.9209 40.2586 21.5334 39.8711 21.0554 39.8711Z" fill="white"/>
</svg>
